<svg width="700" height="700" xmlns="http://www.w3.org/2000/svg" version="1.1">

 <g>
  <title>Layer 1</title>
  <g id="svg_73">
   <path fill="#ffffff" d="m147.40002,98.0885l124.49,0c27.836,0 50.398,27.836 50.398,50.398l0,73.527c0,27.836 -22.566,50.398 -50.398,50.398l-124.49,0c-27.836,0 -50.398,-27.836 -50.398,-50.398l0,-73.527c0,-27.836 22.566,-50.398 50.398,-50.398z" id="svg_26"/>
   <path fill="#ffffff" d="m428.11002,96.0885l124.49,0c27.836,0 50.398,27.836 50.398,50.398l0,172.7c0,27.836 -22.566,50.398 -50.398,50.398l-124.49,0c-27.836,0 -50.398,-27.836 -50.398,-50.398l0,-172.7c0,-27.836 22.566,-50.398 50.398,-50.398z" id="svg_27"/>
   <path fill="#ffffff" d="m147.40002,330.4155l124.49,0c27.836,0 50.398,27.836 50.398,50.398l0,172.7c0,27.836 -22.566,50.398 -50.398,50.398l-124.49,0c-27.836,0 -50.398,-27.836 -50.398,-50.398l0,-172.7c0,-27.836 22.566,-50.398 50.398,-50.398z" id="svg_28"/>
   <path fill="#ffffff" d="m426.11002,427.5355l124.49,0c27.836,0 50.398,27.836 50.398,50.398l0,73.527c0,27.836 -22.566,50.398 -50.398,50.398l-124.49,0c-27.836,0 -50.398,-27.836 -50.398,-50.398l0,-73.527c0,-27.836 22.566,-50.398 50.398,-50.398z" id="svg_29"/>
  </g>
 </g>
</svg>